<?xml version="1.0" encoding="UTF-8"?> <svg xmlns="http://www.w3.org/2000/svg" id="Layer_1" data-name="Layer 1" viewBox="0 0 1200 675"><defs><style> .cls-1 { fill: #1d1d1b; } .cls-1, .cls-2, .cls-3 { stroke-width: 0px; } .cls-2 { fill: #ff4c8b; } .cls-3 { fill: #00d8d5; } </style></defs><path class="cls-1" d="M395.33,340.6c0-34.7,18.46-51.98,54.78-51.98,14.77,0,23.63,2.66,31.01,6.05l-6.35,17.42c-9.45-2.51-13.44-3.54-24.51-3.69-18.02-.3-30.71,9.89-30.71,30.86s13.29,32.04,33.52,32.04c9.75,0,15.51-.89,23.18-2.81l5.02,18.02c-9.6,3.54-17.87,4.87-30.86,4.87-36.33-.15-55.08-18.02-55.08-50.8h0ZM548.76,351.38c0-12.4-3.1-21.85-16.1-21.85s-16.24,9.45-16.24,22c0,13.29,3.99,21.26,16.54,21.26s15.8-8.27,15.8-21.41h0ZM492.65,351.97c0-25.55,15.95-41.2,40.46-41.2,27.47,0,39.72,15.36,39.72,40.61s-17.28,40.31-40.9,40.31c-25.55-.15-39.28-15.51-39.28-39.72h0ZM580.36,312.69h25.25l12.99,41.79,3.99,15.36,4.43-15.36,14.47-41.79h24.66l-29.98,77.08h-27.91l-27.91-77.08ZM720.2,370.28v-12.11l-11.52.3c-6.94.15-11.96,2.36-11.96,8.12,0,4.58,4.43,6.5,8.56,6.5,4.43-.15,9.89-1.48,14.91-2.81h0ZM673.83,367.92c0-19.49,17.87-23.48,33.08-23.48h13.44v-4.87c0-6.79-4.43-8.71-14.03-8.71-7.68,0-15.8,1.62-23.04,3.4l-4.73-17.13c8.71-3.4,18.9-6.2,31.16-6.2,23.92,0,33.52,6.79,33.52,24.22v34.26c0,2.51,2.51,3.1,6.94,3.25l-.89,17.87c-1.77.15-3.69.15-5.46.15-9.3,0-19.2-1.62-21.26-8.12-5.61,4.43-13.73,8.71-22.15,8.71-16.98-.15-26.58-7.97-26.58-23.33h0ZM767.75,283.31h23.63v106.47h-23.63v-106.47ZM856.65,343.41c.3-9.3-3.84-15.8-11.37-15.8-8.12,0-13.29,5.61-13.73,15.8h25.1ZM807.47,352.41c0-31.45,16.54-41.49,39.87-41.49s33.67,15.8,33.67,39.13v8.42h-50.06c-.15,12.11,9.45,14.47,21.71,14.47,5.17,0,14.03-1.62,22-3.1l3.54,17.87c-8.56,2.51-19.64,3.84-28.94,3.84-25.4,0-41.79-8.27-41.79-39.13h0ZM896.96,312.69h23.63v7.83c4.73-3.54,14.77-9.75,25.1-9.75,24.22,0,25.84,13.29,25.84,30.86v48.29h-23.48v-46.37c0-10.63-2.36-12.4-10.34-12.4-7.09,0-13.44,2.22-17.28,4.13v54.64h-23.63v-77.23h.15ZM994.72,365.85v-35.74h-11.22v-17.42h11.22v-15.8h23.48v15.8h23.92v17.42h-23.92v35.59c0,5.61,2.07,6.05,8.42,6.05,5.17,0,16.69-1.62,16.69-1.62l2.22,18.46c-5.46,1.62-12.99,2.66-18.61,2.66-14.77.15-32.19.89-32.19-25.4h0ZM260.81,280.8v-49.62c-58.77,0-106.32,47.55-106.32,106.32s47.55,106.32,106.32,106.32v-49.62c-31.31,0-56.7-25.4-56.7-56.7,0-31.45,25.4-56.7,56.7-56.7"></path><path class="cls-3" d="M317.81,280.8c-3.25,0-6.5-.59-9.45-1.92s-5.76-3.1-7.97-5.32c-2.36-2.36-4.13-5.02-5.32-7.97s-1.92-6.2-1.92-9.45.59-6.5,1.92-9.45c1.18-2.95,3.1-5.76,5.32-7.97,2.36-2.36,5.02-4.13,7.97-5.32s6.2-1.92,9.45-1.92c6.65,0,12.85,2.66,17.57,7.24,4.58,4.58,7.24,10.93,7.24,17.57s-2.66,12.85-7.24,17.57c-4.73,4.28-11.08,6.94-17.57,6.94"></path><path class="cls-2" d="M317.36,443.82c-6.65,0-12.85-2.66-17.57-7.24-4.58-4.58-7.24-10.93-7.24-17.57s2.66-12.85,7.24-17.57c4.58-4.58,10.93-7.24,17.57-7.24s12.85,2.66,17.57,7.24c4.58,4.58,7.24,10.93,7.24,17.57s-2.66,12.85-7.24,17.57c-4.73,4.58-11.08,7.24-17.57,7.24"></path><path class="cls-1" d="M317.51,337.5c0,31.31-25.4,56.7-56.7,56.7v-113.41c31.31,0,56.7,25.25,56.7,56.7"></path></svg> 